<?xml version="1.0" encoding="iso-8859-1"?>
<!-- Generator: Adobe Illustrator 18.1.1, SVG Export Plug-In . SVG Version: 6.00 Build 0)  -->
<svg version="1.1" id="Capa_1" xmlns="http://www.w3.org/2000/svg" xmlns:xlink="http://www.w3.org/1999/xlink" x="0px" y="0px"
	 viewBox="0 0 612.002 612.002" style="enable-background:new 0 0 612.002 612.002; fill:#2e5aef;" xml:space="preserve">
<g>
	<g>
		<path d="M108.485,376.479c4.436,0,8.927-1.25,12.921-3.85l133.784-87.186l116.218,51.979c3.108,1.39,6.404,2.067,9.678,2.067
			c5.84,0,11.604-2.158,16.069-6.277l112.802-103.978v18.584c0,13.094,10.613,23.709,23.707,23.709
			c13.094,0,23.707-10.615,23.707-23.709V175.56c0-13.094-10.613-23.709-23.707-23.709h-72.26
			c-13.094,0-23.707,10.615-23.707,23.709s10.613,23.707,23.707,23.707h11.102l-96.003,88.493l-113.755-50.877
			c-3.092-1.383-6.392-2.065-9.676-2.065c-4.529,0-9.035,1.298-12.946,3.846L95.518,332.904c-10.97,7.148-14.069,21.834-6.92,32.809
			C93.142,372.684,100.735,376.479,108.485,376.479z"/>
		<path d="M588.291,528.831h-65.302V294.003c-11.465-2.648-21.359-9.451-27.979-18.75l-19.437,17.917v235.661h-79.025V360.61
			c-4.924,1.697-10.139,2.588-15.463,2.588c-6.711,0-13.224-1.39-19.357-4.133l-12.597-5.634v175.401h-79.025V318.086l-12.799-5.725
			l-34.617,22.559v193.912h-79.027V386.42l-9.321,6.075c-7.727,5.032-16.669,7.693-25.86,7.693c-4.193,0-8.298-0.557-12.235-1.604
			v130.246H47.416V59.463c0-13.094-10.615-23.707-23.709-23.707C10.615,35.756,0,46.37,0,59.463v493.075
			c0,13.094,10.615,23.707,23.709,23.707h564.584c13.094,0,23.709-10.613,23.709-23.707
			C612.002,539.445,601.385,528.831,588.291,528.831z"/>
	</g>
</g>
<g>
</g>
<g>
</g>
<g>
</g>
<g>
</g>
<g>
</g>
<g>
</g>
<g>
</g>
<g>
</g>
<g>
</g>
<g>
</g>
<g>
</g>
<g>
</g>
<g>
</g>
<g>
</g>
<g>
</g>
</svg>
